<?xml version="1.0" standalone="no"?>
<!DOCTYPE svg PUBLIC "-//W3C//DTD SVG 1.1//EN" "http://www.w3.org/Graphics/SVG/1.1/DTD/svg11.dtd" >
<svg xmlns="http://www.w3.org/2000/svg">
<metadata>Generated by IcoMoon</metadata>
<defs>
<font id="icons" horiz-adv-x="1024">
<font-face units-per-em="1024" ascent="960" descent="-64" />
<missing-glyph horiz-adv-x="1024" />
<glyph unicode="&#x20;" horiz-adv-x="512" d="" />
<glyph unicode="&#xe900;" glyph-name="alert" d="M896 213.333c-35.346 0-64 28.654-64 64v0 207.445c0.1 3.075 0.157 6.69 0.157 10.319 0 165.575-118.53 303.466-275.367 333.45l-2.123 0.338v88.448c0 23.564-19.103 42.667-42.667 42.667s-42.667-19.103-42.667-42.667v0-88.448c-158.961-30.322-277.49-168.213-277.49-333.788 0-3.629 0.057-7.244 0.17-10.846l-0.013 0.527v-207.445c0-35.346-28.654-64-64-64v0c-23.564 0-42.667-19.103-42.667-42.667s19.103-42.667 42.667-42.667v0h768c23.564 0 42.667 19.103 42.667 42.667s-19.103 42.667-42.667 42.667v0zM607.403 64h-190.805c-5.462-0.010-9.961-4.124-10.577-9.422l-0.005-0.050c-0.435-3.484-0.683-7.516-0.683-11.606 0-0.090 0-0.18 0-0.27v0.014c0-58.91 47.756-106.667 106.667-106.667s106.667 47.756 106.667 106.667v0c0 0.076 0 0.166 0 0.256 0 4.090-0.248 8.122-0.73 12.082l0.047-0.476c-0.58 5.347-5.070 9.472-10.523 9.472-0.020 0-0.041 0-0.061 0h0.003z" />
<glyph unicode="&#xe901;" glyph-name="arrow-down" d="M952.917 527.915c-20.226 21.082-48.632 34.183-80.097 34.183-30.070 0-57.345-11.964-77.326-31.392l0.026 0.025-158.549-165.205c-1.943-2.014-4.665-3.264-7.68-3.264-5.884 0-10.655 4.764-10.667 10.645v495.83c-5.067 49.344-46.413 87.508-96.672 87.508-3.505 0-6.967-0.186-10.376-0.548l0.424 0.037c-34.859 0-107.349-19.157-106.667-85.333v-498.389c-0.047-5.879-4.824-10.626-10.709-10.626-2.926 0-5.578 1.174-7.511 3.076l0.001-0.001-159.616 159.147c-19.852 18.443-46.544 29.76-75.88 29.76-31.48 0-59.917-13.033-80.208-33.997l-0.029-0.030c-21.153-20.235-34.302-48.688-34.302-80.211 0-29.392 11.431-56.114 30.089-75.964l-0.054 0.058 414.592-410.581c7.627-7.619 18.159-12.331 29.792-12.331 0.026 0 0.053 0 0.079 0h0.423c11.796 0.076 22.437 4.961 30.071 12.791l0.009 0.009 413.867 417.749c19.135 19.964 30.916 47.109 30.916 77.006 0 31.407-13.001 59.776-33.915 80.021l-0.030 0.029z" />
<glyph unicode="&#xe902;" glyph-name="arrow-left" d="M932.864 554.667h-495.232c-0.006 0-0.014 0-0.022 0-5.891 0-10.667 4.776-10.667 10.667 0 3.015 1.251 5.737 3.261 7.677l0.003 0.003 164.864 158.763c19.109 19.953 30.873 47.074 30.873 76.943 0 31.463-13.053 59.878-34.040 80.123l-0.033 0.032c-20.294 20.991-48.705 34.023-80.161 34.023-29.816 0-56.897-11.709-76.897-30.779l0.044 0.042-417.792-413.824c-7.783-7.731-12.6-18.439-12.6-30.273 0-11.663 4.68-22.233 12.264-29.935l-0.005 0.005 410.667-414.891c19.984-17.926 46.536-28.887 75.648-28.887 62.681 0 113.493 50.813 113.493 113.493 0 29.133-10.977 55.703-29.021 75.798l0.093-0.105-159.104 159.275c-1.936 1.931-3.134 4.602-3.134 7.552 0 5.891 4.776 10.667 10.667 10.667 0.007 0 0.013 0 0.020 0h498.047c66.389 0 85.333 71.467 85.333 107.093 0.315 2.938 0.495 6.346 0.495 9.796 0 50.128-37.915 91.401-86.633 96.704l-0.433 0.038z" />
<glyph unicode="&#xe903;" glyph-name="arrow-right" d="M1006.933 478.336l-417.835 413.867c-19.937 19.092-47.036 30.844-76.879 30.844-31.438 0-59.83-13.042-80.060-34.011l-0.032-0.033c-20.725-20.426-33.564-48.804-33.564-80.181 0-29.918 11.673-57.111 30.714-77.27l-0.051 0.054 165.163-158.464c2.014-1.943 3.264-4.665 3.264-7.68 0-5.884-4.764-10.655-10.645-10.667h-495.916c-49.28-5.208-87.344-46.544-87.344-96.771 0-3.53 0.188-7.017 0.555-10.45l-0.037 0.427c0-34.773 19.115-107.093 85.333-107.093h498.304c0.006 0 0.012 0 0.019 0 5.891 0 10.667-4.776 10.667-10.667 0-2.95-1.198-5.621-3.134-7.552v0l-159.189-159.275c-17.914-19.981-28.867-46.524-28.867-75.625 0-62.681 50.813-113.493 113.493-113.493 29.144 0 55.722 10.985 75.82 29.040l-0.105-0.092 410.667 414.72c7.63 7.706 12.344 18.31 12.344 30.016 0 11.875-4.852 22.618-12.681 30.353l-0.004 0.004z" />
<glyph unicode="&#xe904;" glyph-name="arrow-up" d="M956.16 524.8l-414.037 418.133c-7.646 7.86-18.308 12.752-30.114 12.8h-0.009c-0.001 0-0.003 0-0.004 0-11.655 0-22.21-4.711-29.864-12.332l0.001 0.001-415.019-410.923c-18.579-19.786-29.993-46.491-29.993-75.861 0-31.503 13.132-59.939 34.22-80.133l0.040-0.038c20.178-21.229 48.624-34.434 80.155-34.434 29.406 0 56.13 11.486 75.929 30.216l-0.052-0.048 159.701 159.232c1.927 1.911 4.58 3.091 7.509 3.091 5.891 0 10.667-4.776 10.667-10.667 0-0.007 0-0.014 0-0.020v0.001-497.749c-0.683-66.517 71.040-85.803 106.709-85.803 3.016-0.332 6.512-0.522 10.053-0.522 50.179 0 91.469 38.059 96.578 86.886l0.036 0.42v496c0 0.007 0 0.015 0 0.023 0 5.891 4.776 10.667 10.667 10.667 3.036 0 5.776-1.269 7.719-3.305l0.004-0.004 158.805-165.589c19.975-17.936 46.523-28.904 75.634-28.904 62.634 0 113.408 50.774 113.408 113.408 0 29.025-10.904 55.504-28.839 75.563l0.096-0.11z" />
<glyph unicode="&#xe905;" glyph-name="chevron-down" d="M512 128c-0.036 0-0.079 0-0.121 0-29.287 0-55.578 12.83-73.558 33.175l-0.091 0.105-418.603 475.819c-11.468 13.596-18.437 31.312-18.437 50.655 0 43.523 35.282 78.805 78.805 78.805 22.89 0 43.501-9.759 57.898-25.344l0.048-0.053 366.037-416.085c1.965-2.234 4.829-3.636 8.021-3.636s6.056 1.402 8.011 3.624l0.010 0.012 366.037 416.085c14.553 17.26 36.189 28.15 60.368 28.15 43.523 0 78.805-35.282 78.805-78.805 0-20.633-7.929-39.414-20.907-53.462l0.048 0.053-418.475-475.648c-18.131-20.532-44.507-33.422-73.894-33.451h-0.005z" />
<glyph unicode="&#xe906;" glyph-name="chevron-left" d="M192 448c0 0.036 0 0.079 0 0.121 0 29.287 12.83 55.578 33.175 73.558l0.105 0.091 475.819 418.603c13.596 11.468 31.312 18.437 50.655 18.437 43.523 0 78.805-35.282 78.805-78.805 0-22.89-9.759-43.501-25.344-57.898l-0.053-0.048-416.085-366.037c-2.234-1.965-3.636-4.829-3.636-8.021s1.402-6.056 3.624-8.011l0.012-0.010 416.085-366.037c17.26-14.553 28.15-36.189 28.15-60.368 0-43.523-35.282-78.805-78.805-78.805-20.633 0-39.414 7.929-53.462 20.907l0.053-0.048-475.648 418.475c-20.532 18.131-33.422 44.507-33.451 73.894v0.005z" />
<glyph unicode="&#xe907;" glyph-name="chevron-right" d="M832 448c0-0.036 0-0.079 0-0.121 0-29.287-12.83-55.578-33.175-73.558l-0.105-0.091-475.819-418.603c-13.596-11.468-31.312-18.437-50.655-18.437-43.523 0-78.805 35.282-78.805 78.805 0 22.89 9.759 43.501 25.344 57.898l0.053 0.048 416.085 366.037c2.234 1.965 3.636 4.829 3.636 8.021s-1.402 6.056-3.624 8.011l-0.012 0.010-416.085 366.037c-15.638 14.446-25.397 35.057-25.397 57.946 0 43.523 35.282 78.805 78.805 78.805 19.344 0 37.060-6.969 50.774-18.534l-0.118 0.097 475.648-418.475c20.532-18.131 33.422-44.507 33.451-73.894v-0.005z" />
<glyph unicode="&#xe908;" glyph-name="chevron-up" d="M512 768c0.036 0 0.079 0 0.121 0 29.287 0 55.578-12.83 73.558-33.175l0.091-0.105 418.603-475.733c12.929-13.995 20.859-32.776 20.859-53.409 0-43.523-35.282-78.805-78.805-78.805-24.179 0-45.815 10.889-60.271 28.032l-0.097 0.118-366.037 416c-1.965 2.234-4.829 3.636-8.021 3.636s-6.056-1.402-8.011-3.624l-0.010-0.012-366.037-416.085c-14.553-17.26-36.189-28.15-60.368-28.15-43.523 0-78.805 35.282-78.805 78.805 0 20.633 7.929 39.414 20.907 53.462l-0.048-0.053 418.475 475.648c18.131 20.532 44.507 33.422 73.894 33.451h0.005z" />
<glyph unicode="&#xe909;" glyph-name="facebook" d="M834.133 338.773c-1.322-10.629-10.299-18.774-21.179-18.774-0.054 0-0.108 0-0.162 0.001h-87.459c-11.782 0-21.333-9.551-21.333-21.333v0-341.333c0-11.782 9.551-21.333 21.333-21.333v0h256c23.564 0 42.667 19.103 42.667 42.667v0 938.667c0 23.564-19.103 42.667-42.667 42.667v0h-938.667c-23.564 0-42.667-19.103-42.667-42.667v0-938.667c0-23.564 19.103-42.667 42.667-42.667v0h469.333c11.782 0 21.333 9.551 21.333 21.333v0 341.333c0 11.782-9.551 21.333-21.333 21.333v0h-85.333c-11.782 0-21.333 9.551-21.333 21.333v0 128c0 11.782 9.551 21.333 21.333 21.333v0h85.333c11.782 0 21.333 9.551 21.333 21.333v0 55.893c0 134.080 108.693 242.773 242.773 242.773v0h55.893c11.782 0 21.333-9.551 21.333-21.333v0-128c0-11.782-9.551-21.333-21.333-21.333v0h-55.893c-39.823 0-72.107-32.283-72.107-72.107v0-55.893c0-11.782 9.551-21.333 21.333-21.333v0h103.68c0.046 0 0.1 0.001 0.154 0.001 11.782 0 21.333-9.551 21.333-21.333 0-0.902-0.056-1.792-0.165-2.665l0.011 0.104z" />
<glyph unicode="&#xe90a;" glyph-name="filter" d="M1018.573 931.738c-8.6 16.892-25.859 28.262-45.773 28.262h-921.6c-28.276-0.001-51.198-22.924-51.198-51.2 0-12.455 4.448-23.872 11.841-32.748l-0.067 0.083 372.224-449.434v-439.501c0.004-21.218 12.913-39.419 31.305-47.183l0.336-0.126c5.741-2.461 12.421-3.891 19.436-3.891 0.043 0 0.086 0 0.129 0h-0.007c14 0.090 26.653 5.785 35.841 14.951l153.599 153.599c9.41 9.228 15.27 22.046 15.36 36.233v283.563c149.914 156.262 364.442 441.242 373.76 453.734 6.392 8.45 10.239 19.135 10.239 30.719 0 8.363-2.005 16.257-5.56 23.229l0.134-0.29z" />
<glyph unicode="&#xe90b;" glyph-name="help" d="M512 960c-282.77 0-512-229.23-512-512s229.23-512 512-512c282.77 0 512 229.23 512 512v0c-0.316 282.643-229.358 511.685-511.97 512h-0.030zM512 149.333c-35.346 0-64 28.654-64 64s28.654 64 64 64c35.346 0 64-28.654 64-64v0c0-35.346-28.654-64-64-64v0zM580.267 408.747c-15.195-6.753-25.6-21.714-25.6-39.105 0-0.007 0-0.015 0-0.022v0.001c0-23.564-19.103-42.667-42.667-42.667s-42.667 19.103-42.667 42.667v0c0 0.006 0 0.013 0 0.019 0 52.172 31.214 97.054 75.986 116.99l0.814 0.324c30.391 13.506 51.2 43.428 51.2 78.209 0 47.128-38.205 85.333-85.333 85.333s-85.333-38.205-85.333-85.333c0-0.015 0-0.031 0-0.046v0.002c0-23.564-19.103-42.667-42.667-42.667s-42.667 19.103-42.667 42.667v0c0 0.001 0 0.002 0 0.003 0 94.257 76.41 170.667 170.667 170.667s170.667-76.41 170.667-170.667c0-69.563-41.619-129.406-101.314-155.987l-1.086-0.432z" />
<glyph unicode="&#xe90c;" glyph-name="house" d="M1011.499 478.165l-469.333 469.333c-7.721 7.718-18.386 12.492-30.165 12.492s-22.445-4.774-30.165-12.492l-469.333-469.333c-7.718-7.721-12.492-18.386-12.492-30.165 0-23.561 19.097-42.661 42.657-42.667h53.334c5.891 0 10.667-4.776 10.667-10.667v0-416c0-23.564 19.103-42.667 42.667-42.667v0h245.333c5.891 0 10.667 4.776 10.667 10.667v0 202.667c0 58.91 47.756 106.667 106.667 106.667s106.667-47.756 106.667-106.667v0-202.667c0-5.891 4.776-10.667 10.667-10.667v0h245.333c23.564 0 42.667 19.103 42.667 42.667v0 416c0 5.891 4.776 10.667 10.667 10.667v0h53.333c23.56 0.005 42.658 19.106 42.658 42.667 0 11.78-4.774 22.445-12.492 30.165v0z" />
<glyph unicode="&#xe90d;" glyph-name="instagram" d="M746.667 960h-469.333c-153.069-0.242-277.091-124.264-277.333-277.31v-469.357c0.242-153.069 124.264-277.091 277.31-277.333h469.357c153.069 0.242 277.091 124.264 277.333 277.31v469.357c-0.242 153.069-124.264 277.091-277.31 277.333h-0.024zM512 213.333c-129.603 0-234.667 105.064-234.667 234.667s105.064 234.667 234.667 234.667c129.603 0 234.667-105.064 234.667-234.667v0c0-129.603-105.064-234.667-234.667-234.667v0zM789.333 682.667c-35.346 0-64 28.654-64 64s28.654 64 64 64c35.346 0 64-28.654 64-64v0c0-35.346-28.654-64-64-64v0z" />
<glyph unicode="&#xe90e;" glyph-name="linkedin" d="M85.333 597.333h213.333v-597.333h-213.333zM85.333 789.333c0-58.91 47.374-106.667 105.813-106.667s105.813 47.756 105.813 106.667v0c0 58.91-47.374 106.667-105.813 106.667s-105.813-47.756-105.813-106.667v0zM789.333 0h128c11.782 0 21.333 9.551 21.333 21.333v0 358.4c0 160.853-90.88 238.933-218.027 238.933-1.958 0.076-4.256 0.12-6.565 0.12-50.44 0-96.024-20.79-128.651-54.268l-0.037-0.038c-3.225-3.712-7.954-6.045-13.227-6.045-9.661 0-17.493 7.832-17.493 17.493 0 0.025 0 0.050 0 0.075v-0.004c0 11.782-9.551 21.333-21.333 21.333v0h-128c-11.782 0-21.333-9.551-21.333-21.333v0-554.667c0-11.782 9.551-21.333 21.333-21.333v0h128c11.782 0 21.333 9.551 21.333 21.333v0 320c0 58.91 47.756 106.667 106.667 106.667s106.667-47.756 106.667-106.667v0-320c0-11.782 9.551-21.333 21.333-21.333v0z" />
<glyph unicode="&#xe90f;" glyph-name="menu-dots" d="M384 64c0-70.692 57.308-128 128-128s128 57.308 128 128v0c0 70.692-57.308 128-128 128s-128-57.308-128-128v0zM384 448c0-70.692 57.308-128 128-128s128 57.308 128 128v0c0 70.692-57.308 128-128 128s-128-57.308-128-128v0zM384 832c0-70.692 57.308-128 128-128s128 57.308 128 128v0c0 70.692-57.308 128-128 128s-128-57.308-128-128v0z" />
<glyph unicode="&#xe910;" glyph-name="menu-lines" d="M947.2 729.6h-870.4c-42.415 0-76.8 34.385-76.8 76.8s34.385 76.8 76.8 76.8v0h870.4c42.415 0 76.8-34.385 76.8-76.8s-34.385-76.8-76.8-76.8v0zM947.2 371.2h-870.4c-42.415 0-76.8 34.385-76.8 76.8s34.385 76.8 76.8 76.8v0h870.4c42.415 0 76.8-34.385 76.8-76.8s-34.385-76.8-76.8-76.8v0zM947.2 12.8h-870.4c-42.415 0-76.8 34.385-76.8 76.8s34.385 76.8 76.8 76.8v0h870.4c42.415 0 76.8-34.385 76.8-76.8s-34.385-76.8-76.8-76.8v0z" />
<glyph unicode="&#xe911;" glyph-name="pause" d="M512-64c282.77 0 512 229.23 512 512s-229.23 512-512 512c-282.77 0-512-229.23-512-512v0c0.316-282.643 229.358-511.685 511.97-512h0.030zM309.931 254.251v341.333c0 35.346 28.654 64 64 64v0h20.139c35.346 0 64-28.654 64-64v0-341.333c0-35.346-28.654-64-64-64v0h-20.139c-35.346 0-64 28.654-64 64v0zM563.541 595.584c0 35.346 28.654 64 64 64v0h22.528c35.346 0 64-28.654 64-64v0-341.333c0-35.346-28.654-64-64-64v0h-22.528c-35.346 0-64 28.654-64 64v0z" />
<glyph unicode="&#xe912;" glyph-name="play" d="M512 960c-282.77 0-512-229.23-512-512s229.23-512 512-512c282.77 0 512 229.23 512 512v0c-0.316 282.643-229.358 511.685-511.97 512h-0.030zM717.995 409.856l-314.923-157.44c-5.557-2.837-12.12-4.5-19.072-4.5-23.556 0-42.654 19.090-42.667 42.643v314.966c0.001 23.564 19.103 42.665 42.667 42.665 6.935 0 13.484-1.655 19.272-4.59l-0.243 0.112 315.008-157.312c14.182-7.133 23.742-21.57 23.742-38.24 0-16.687-9.58-31.137-23.539-38.149l-0.246-0.112z" />
<glyph unicode="&#xe913;" glyph-name="reddit" d="M1024 469.333c-0.315 70.454-57.501 127.446-127.999 127.446-42.237 0-79.695-20.457-103.008-52.004l-0.246-0.349c-71.068 43.018-156.132 70.075-247.171 74.199l-1.149 0.041c2.56 45.227 15.787 123.733 58.88 148.48 26.88 15.36 66.133 8.107 115.627-19.627 5.646-53.858 50.81-95.476 105.693-95.476 58.675 0 106.24 47.565 106.24 106.24s-47.565 106.24-106.24 106.24c-38.547 0-72.3-20.529-90.92-51.251l-0.266-0.473c-25.421 16.479-56.502 26.276-89.871 26.276-26.277 0-51.136-6.075-73.247-16.898l0.985 0.435c-75.52-42.667-89.173-155.733-91.307-203.947-92.335-4.108-177.553-31.173-251.131-75.575l2.384 1.335c-23.559 31.896-61.018 52.353-103.255 52.353-70.498 0-127.684-56.992-127.999-127.416v-0.030c-0.001-0.146-0.001-0.32-0.001-0.493 0-55.399 35.194-102.577 84.443-120.398l0.891-0.282c-0.296-4.211-0.465-9.126-0.465-14.080s0.169-9.869 0.501-14.738l-0.036 0.658c0-164.693 191.573-298.667 426.667-298.667s426.667 133.973 426.667 298.667c0.296 4.211 0.465 9.126 0.465 14.080s-0.169 9.869-0.501 14.738l0.036-0.658c50.141 18.102 85.334 65.281 85.334 120.68 0 0.174 0 0.347-0.001 0.52v-0.027zM277.333 384c0 35.346 28.654 64 64 64s64-28.654 64-64c0-35.346-28.654-64-64-64v0c-35.346 0-64 28.654-64 64v0zM678.827 170.667c-47.645-26.851-104.602-42.67-165.254-42.67-0.553 0-1.106 0.001-1.658 0.004h0.085c-0.912-0.009-1.991-0.014-3.070-0.014-60.436 0-117.176 15.826-166.302 43.559l1.692-0.878c-9.643 5.638-16.018 15.941-16.018 27.733 0 17.683 14.335 32.018 32.018 32.018 5.891 0 11.41-1.591 16.151-4.366l-0.151 0.082c39.347-20.411 85.902-32.381 135.253-32.381s95.907 11.97 136.922 33.165l-1.669-0.784c4.59 2.694 10.109 4.284 16 4.284 17.683 0 32.018-14.335 32.018-32.018 0-11.792-6.375-22.096-15.867-27.652l-0.151-0.082zM682.667 320c-35.346 0-64 28.654-64 64s28.654 64 64 64c35.346 0 64-28.654 64-64v0c0-35.346-28.654-64-64-64v0z" />
<glyph unicode="&#xe914;" glyph-name="remove" d="M966.997 722.005c11.578 11.581 18.738 27.578 18.738 45.248s-7.161 33.667-18.739 45.248l-90.496 90.496c-11.583 11.59-27.589 18.76-45.269 18.76s-33.686-7.169-45.269-18.759l-266.411-266.454c-1.936-1.926-4.605-3.116-7.552-3.116s-5.616 1.19-7.552 3.117v0l-266.411 266.453c-11.583 11.59-27.589 18.76-45.269 18.76s-33.686-7.169-45.269-18.759l-90.496-90.496c-11.578-11.581-18.738-27.578-18.738-45.248s7.161-33.667 18.739-45.248l266.453-266.453c1.916-1.941 3.099-4.608 3.099-7.552s-1.183-5.611-3.1-7.553l-266.452-266.452c-11.578-11.581-18.738-27.578-18.738-45.248s7.161-33.667 18.739-45.248l90.496-90.496c11.583-11.59 27.589-18.76 45.269-18.76s33.686 7.169 45.269 18.759l266.411 266.454c1.936 1.926 4.605 3.116 7.552 3.116s5.616-1.19 7.552-3.117v0l266.411-266.453c11.583-11.59 27.589-18.76 45.269-18.76s33.686 7.169 45.269 18.759l90.496 90.496c11.578 11.581 18.738 27.578 18.738 45.248s-7.161 33.667-18.739 45.248l-266.453 266.453c-1.916 1.941-3.099 4.608-3.099 7.552s1.183 5.611 3.1 7.553l-0.001-0.001z" />
<glyph unicode="&#xe915;" glyph-name="search" d="M998.997 81.451l-198.187 198.187c46.182 68.283 73.723 152.463 73.723 243.076 0 241.674-195.915 437.589-437.589 437.589s-437.589-195.915-437.589-437.589c0-241.674 195.915-437.589 437.589-437.589 90.667 0 174.894 27.575 244.752 74.795l-1.547-0.986 198.187-198.144c15.556-15.185 36.849-24.552 60.331-24.552s44.775 9.367 60.348 24.569l-0.017-0.017c15.437 15.441 24.984 36.771 24.984 60.331s-9.548 44.889-24.985 60.331v0zM437.333 831.787c170.84 0 309.333-138.493 309.333-309.333s-138.493-309.333-309.333-309.333c-170.84 0-309.333 138.493-309.333 309.333v0c0.194 170.762 138.571 309.139 309.315 309.333h0.019z" />
<glyph unicode="&#xe916;" glyph-name="snapchat" d="M888.747 163.413l92.587 18.773c16.3 4.682 28.025 19.458 28.025 36.972 0 15.6-9.302 29.027-22.662 35.037l-0.243 0.098c-48.865 22.871-90.88 48.485-129.72 78.056l1.72-1.256c-15.118 11.405-24.788 29.336-24.788 49.525 0 22.008 11.492 41.332 28.802 52.299l0.253 0.15 56.32 35.413c17.459 11.199 28.863 30.508 28.863 52.48 0 34.32-27.822 62.143-62.143 62.143-12.348 0-23.855-3.601-33.527-9.811l0.247 0.149-36.267-23.040c-2.399-1.624-5.356-2.593-8.54-2.593-8.483 0-15.36 6.877-15.36 15.36 0 0.162 0.002 0.323 0.007 0.483l-0.001-0.023v116.907c-6.030 149.575-128.748 268.549-279.253 268.549s-273.224-118.974-279.236-268.004l-0.017-0.545v-116.48c0.004-0.137 0.007-0.298 0.007-0.46 0-8.483-6.877-15.36-15.36-15.36-3.184 0-6.142 0.969-8.594 2.628l0.054-0.035-36.267 23.040c-9.425 6.061-20.932 9.663-33.28 9.663-34.32 0-62.143-27.822-62.143-62.143 0-21.972 11.404-41.281 28.615-52.331l0.247-0.149 56.32-35.413c17.563-11.117 29.055-30.441 29.055-52.449 0-20.189-9.67-38.119-24.632-49.411l-0.157-0.113c-37.12-28.315-79.135-53.929-123.726-74.985l-4.274-1.815c-14.398-5.756-24.385-19.587-24.385-35.751 0-17.275 11.407-31.885 27.1-36.71l0.272-0.072 91.733-18.773c16.072-4.829 27.581-19.493 27.581-36.844 0-3.279-0.411-6.463-1.185-9.501l0.057 0.266c-1.131-4.346-1.781-9.336-1.781-14.477 0-32.99 26.744-59.733 59.733-59.733 3.493 0 6.915 0.3 10.243 0.875l-0.356-0.051 29.013 4.693c6.538 1.142 14.067 1.794 21.749 1.794 36.667 0 69.86-14.872 93.877-38.913l0.001-0.001c34.379-40.44 82.75-68.076 137.548-75.398l1.118-0.122c55.644 7.772 103.688 35.515 137.546 75.621l0.268 0.325c24.018 24.042 57.211 38.914 93.878 38.914 7.681 0 15.21-0.653 22.535-1.906l-0.786 0.111 29.013-4.693c2.973-0.524 6.395-0.824 9.888-0.824 32.99 0 59.733 26.744 59.733 59.733 0 5.141-0.65 10.131-1.871 14.891l0.090-0.414c-0.655 2.655-1.031 5.702-1.031 8.838 0 17.316 11.462 31.955 27.212 36.745l0.272 0.071z" />
<glyph unicode="&#xe917;" glyph-name="twitter" d="M994.987 685.227c4.717 3.941 7.697 9.825 7.697 16.406 0 9.97-6.84 18.343-16.083 20.682l-0.147 0.032-33.707 8.533c-9.351 2.399-16.152 10.753-16.152 20.695 0 3.333 0.765 6.488 2.128 9.299l-0.056-0.127 18.773 37.973c1.335 2.707 2.116 5.894 2.116 9.262 0 11.782-9.551 21.333-21.333 21.333-1.966 0-3.871-0.266-5.679-0.764l0.15 0.035-85.333-23.893c-1.789-0.542-3.845-0.853-5.973-0.853-4.827 0-9.279 1.603-12.854 4.306l0.054-0.039c-35.21 26.637-79.733 42.667-128 42.667v0c-117.821 0-213.333-95.513-213.333-213.333v0-15.36c0-0.023 0-0.050 0-0.077 0-5.44-4.072-9.929-9.335-10.584l-0.052-0.005c-119.893-14.080-234.667 46.933-358.4 189.44-3.996 4.395-9.737 7.144-16.12 7.144-2.006 0-3.948-0.271-5.793-0.779l0.153 0.036c-6.956-3.253-11.81-9.959-12.369-17.852l-0.004-0.068c-5.831-22.972-9.177-49.344-9.177-76.498 0-48.355 10.612-94.231 29.634-135.427l-0.83 2.005c0.722-1.4 1.146-3.055 1.146-4.81 0-5.891-4.776-10.667-10.667-10.667-0.555 0-1.1 0.042-1.632 0.124l0.059-0.008-47.787 9.387c-1.018 0.172-2.191 0.27-3.386 0.27-11.782 0-21.333-9.551-21.333-21.333 0-1.454 0.146-2.875 0.423-4.247l-0.023 0.137c7.882-68.156 45.926-126.063 100.236-160.752l0.884-0.528c3.59-1.768 6.017-5.4 6.017-9.6s-2.427-7.832-5.955-9.572l-0.063-0.028-22.613-8.96c-7.918-3.236-13.395-10.879-13.395-19.801 0-3.516 0.851-6.834 2.358-9.758l-0.056 0.12c25.501-54.855 75.416-94.629 135.392-105.639l1.142-0.174c4.134-1.532 7.027-5.441 7.027-10.027s-2.893-8.495-6.954-10.003l-0.074-0.024c-52.719-22.41-114.037-35.436-178.398-35.436-1.632 0-3.263 0.008-4.891 0.025l0.249-0.002c-1.283 0.269-2.757 0.422-4.267 0.422-12.015 0-21.756-9.74-21.756-21.756 0-10.505 7.446-19.272 17.349-21.309l0.141-0.024c101.572-49.318 220.58-79.376 346.295-82.328l1.012-0.019c2.435-0.040 5.307-0.062 8.185-0.062 107.918 0 208.398 31.849 292.552 86.66l-2.071-1.265c143.869 97.030 237.229 259.404 237.229 443.584 0 0.503-0.001 1.005-0.002 1.508v-0.078 37.12c0.056 6.506 3.017 12.31 7.647 16.186l0.033 0.027z" />
<glyph unicode="&#xe918;" glyph-name="youtube" d="M768 857.6h-512c-141.385 0-256-114.615-256-256v0-307.2c0-141.385 114.615-256 256-256v0h512c141.385 0 256 114.615 256 256v0 307.2c0 141.385-114.615 256-256 256v0zM731.648 417.28l-314.163-185.037c-5.021-2.961-11.064-4.71-17.514-4.71-19.285 0-34.918 15.634-34.918 34.918 0 0.18 0.001 0.359 0.004 0.539v-0.027 370.381c-0.002 0.152-0.004 0.332-0.004 0.512 0 19.285 15.634 34.918 34.918 34.918 6.451 0 12.493-1.749 17.678-4.799l-0.164 0.089 314.163-185.344c10.701-6.232 17.778-17.649 17.778-30.72s-7.078-24.488-17.61-30.629l-0.168-0.091z" />
<glyph unicode="&#xe919;" glyph-name="check" d="M292.571 45.714c-46.093 0.833-86.876 22.858-113.122 56.717l-0.249 0.334-160.914 182.126c-11.514 12.869-18.552 29.952-18.552 48.68 0 21.983 9.698 41.701 25.049 55.109l0.086 0.074c12.756 11.103 29.54 17.871 47.905 17.871 22.006 0 41.743-9.719 55.152-25.098l0.074-0.087 150.674-170.423c2.811-4.006 7.41-6.593 12.612-6.593 0.195 0 0.389 0.004 0.581 0.011l-0.028-0.001c0.122-0.003 0.265-0.005 0.409-0.005 5.091 0 9.654 2.262 12.739 5.835l0.018 0.022 593.189 617.326c12.901 11.638 30.074 18.758 48.91 18.758 40.396 0 73.143-32.747 73.143-73.143 0-17.742-6.317-34.008-16.824-46.673l0.097 0.121-599.771-631.223c-26.184-30.543-64.81-49.774-107.927-49.774-1.143 0-2.283 0.014-3.419 0.040l0.169-0.003z" />
<glyph unicode="&#xe91a;" glyph-name="mail" horiz-adv-x="1418" d="M46.769 842.831v-786.708l408.615 393.354c-127.015 121.6-307.692 295.877-408.615 393.354zM648.862 371.692c8.369-6.892 30.523-22.646 59.077-22.646 23.631 0 46.769 10.831 68.431 32.492 50.215 49.723 388.923 371.692 540.062 514.954h-1215.015c247.138-239.262 518.892-501.169 547.446-524.8zM957.046 448.985l414.031-398.769v792.615c-103.877-98.462-288.492-273.723-414.031-393.846zM832.492 329.354c-36.431-35.938-79.262-55.138-124.062-55.138-39.385 0-78.277 14.277-110.277 40.862-8.862 7.385-38.4 34.954-87.631 81.723l-413.538-398.277h1217.969l-413.046 397.785c-36.923-34.954-59.569-57.108-69.415-66.954z" />
<glyph unicode="&#xe91b;" glyph-name="list" d="M902.4 794.667h-562.133c-41.6 0-75.378-33.778-75.378-75.022v0c0-41.244 33.778-75.378 75.378-75.378h562.133c41.244 0 75.378 33.778 75.378 75.378v0c0 41.244-33.778 75.022-75.378 75.022zM198.605 728.34c4.805-41.945-25.304-79.842-67.248-84.647s-79.842 25.304-84.647 67.248c-4.805 41.945 25.304 79.842 67.248 84.647s79.842-25.304 84.647-67.248zM902.4 522.667h-562.133c-41.244 0-75.378-33.778-75.378-75.378v0c0-41.244 33.778-75.378 75.378-75.378h562.133c41.244 0 75.378 33.778 75.378 75.378v0c0 41.6-33.778 75.378-75.378 75.378zM198.593 456.34c4.805-41.945-25.304-79.842-67.248-84.647s-79.842 25.304-84.647 67.248c-4.805 41.945 25.304 79.842 67.248 84.647s79.842-25.304 84.647-67.248zM902.4 250.667h-562.133c-41.244 0-75.378-33.778-75.378-75.378v0c0-41.244 33.778-75.378 75.378-75.378h562.133c41.244 0 75.378 33.778 75.378 75.378v0c0 41.6-33.778 75.378-75.378 75.378zM198.581 184.34c4.805-41.945-25.304-79.842-67.248-84.647s-79.842 25.304-84.647 67.248c-4.805 41.945 25.304 79.842 67.248 84.647s79.842-25.304 84.647-67.248z" />
<glyph unicode="&#xe91c;" glyph-name="user" d="M384 448c-212 0-384-172-384-384 0-70.752 57.248-128 128-128h512c70.752 0 128 57.248 128 128 0 212-172 384-384 384zM192 768c0 106.039 85.961 192 192 192s192-85.961 192-192c0-106.039-85.961-192-192-192s-192 85.961-192 192z" />
<glyph unicode="&#xe91d;" glyph-name="grid" d="M375.822 599.467c0-8.178-6.756-15.289-15.289-15.289h-181.689c-8.178 0-15.289 6.756-15.289 15.289v181.689c0 8.178 6.756 15.289 15.289 15.289h181.689c8.178 0 15.289-6.756 15.289-15.289v-181.689zM617.956 781.156c0 8.178-6.756 15.289-15.289 15.289h-181.689c-8.178 0-15.289-6.756-15.289-15.289v-181.689c0-8.178 6.756-15.289 15.289-15.289h181.689c8.178 0 15.289 6.756 15.289 15.289v181.689zM860.444 781.156c0 8.178-6.756 15.289-15.289 15.289h-181.689c-8.178 0-15.289-6.756-15.289-15.289v-181.689c0-8.178 6.756-15.289 15.289-15.289h181.689c8.178 0 15.289 6.756 15.289 15.289v181.689zM375.822 539.022c0 8.178-6.756 15.289-15.289 15.289h-181.689c-8.178 0-15.289-6.756-15.289-15.289v-181.689c0-8.178 6.756-15.289 15.289-15.289h181.689c8.178 0 15.289 6.756 15.289 15.289v181.689zM617.956 539.022c0 8.178-6.756 15.289-15.289 15.289h-181.689c-8.178 0-15.289-6.756-15.289-15.289v-181.689c0-8.178 6.756-15.289 15.289-15.289h181.689c8.178 0 15.289 6.756 15.289 15.289v181.689zM860.444 539.022c0 8.178-6.756 15.289-15.289 15.289h-181.689c-8.178 0-15.289-6.756-15.289-15.289v-181.689c0-8.178 6.756-15.289 15.289-15.289h181.689c8.178 0 15.289 6.756 15.289 15.289v181.689zM375.822 296.533c0 8.178-6.756 15.289-15.289 15.289h-181.689c-8.178 0-15.289-6.756-15.289-15.289v-181.689c0-8.178 6.756-15.289 15.289-15.289h181.689c8.178 0 15.289 6.756 15.289 15.289v181.689zM617.956 296.533c0 8.178-6.756 15.289-15.289 15.289h-181.689c-8.178 0-15.289-6.756-15.289-15.289v-181.689c0-8.178 6.756-15.289 15.289-15.289h181.689c8.178 0 15.289 6.756 15.289 15.289v181.689zM860.444 296.533c0 8.178-6.756 15.289-15.289 15.289h-181.689c-8.178 0-15.289-6.756-15.289-15.289v-181.689c0-8.178 6.756-15.289 15.289-15.289h181.689c8.178 0 15.289 6.756 15.289 15.289v181.689z" />
<glyph unicode="&#xe95f;" glyph-name="upload" d="M832 896h-640l-192-192v-672c0-17.674 14.326-32 32-32h960c17.672 0 32 14.326 32 32v672l-192 192zM640 320v-192h-256v192h-192l320 256 320-256h-192zM154.51 768l64 64h586.976l64-64h-714.976z" />
</font>
</defs>
</svg>
